<svg xmlns="http://www.w3.org/2000/svg" version="1.1" xmlns:xlink="http://www.w3.org/1999/xlink" viewBox="0 0 200 200"><rect width="200" height="200" fill="url('#gradient')"></rect><defs><linearGradient id="gradient" gradientTransform="rotate(318 0.5 0.5)"><stop offset="0%" stop-color="#5f2c82"></stop><stop offset="100%" stop-color="#49a09d"></stop></linearGradient></defs><g><g fill="#ffffff" transform="matrix(6.017757904822741,0,0,6.017757904822741,1.5471759178203541,142.78563437323265)" stroke="#c8512e" stroke-width="0"><path d="M10.03-8.30L10.03-5.66L4.50-5.66L4.50 0L1.07 0L1.07-14.22L10.59-14.22L10.59-11.57L4.50-11.57L4.50-8.30L10.03-8.30ZM15.44-14.22L15.44-2.64L21.41-2.64L21.41 0L12.01 0L12.01-14.22L15.44-14.22ZM22.71-14.22L25.33-8.05L27.95-14.22L31.65-14.22L27.07-5.11L27.07 0L23.59 0L23.59-5.11L19.02-14.22L22.71-14.22Z"></path></g></g></svg>